<svg width="107" height="107" viewBox="0 0 107 107" fill="none" xmlns="http://www.w3.org/2000/svg">
<path d="M91.3958 17.8333H15.6041C11.9107 17.8333 8.91663 20.8274 8.91663 24.5208V82.4791C8.91663 86.1726 11.9107 89.1666 15.6041 89.1666H91.3958C95.0892 89.1666 98.0833 86.1726 98.0833 82.4791V24.5208C98.0833 20.8274 95.0892 17.8333 91.3958 17.8333Z" stroke="white" stroke-width="8" stroke-linejoin="round"/>
<path d="M8.91663 24.5208C8.91663 22.7472 9.6212 21.0462 10.8753 19.792C12.1295 18.5379 13.8305 17.8333 15.6041 17.8333H91.3958C93.1694 17.8333 94.8704 18.5379 96.1246 19.792C97.3787 21.0462 98.0833 22.7472 98.0833 24.5208V44.5833H8.91663V24.5208Z" stroke="white" stroke-width="8"/>
<path d="M17.8333 31.2083C17.8333 28.746 19.8294 26.75 22.2917 26.75C24.7539 26.75 26.75 28.746 26.75 31.2083C26.75 33.6706 24.7539 35.6666 22.2917 35.6666C19.8294 35.6666 17.8333 33.6706 17.8333 31.2083Z" fill="white"/>
<path d="M31.2083 31.2083C31.2083 28.746 33.2044 26.75 35.6667 26.75C38.1289 26.75 40.125 28.746 40.125 31.2083C40.125 33.6706 38.1289 35.6666 35.6667 35.6666C33.2044 35.6666 31.2083 33.6706 31.2083 31.2083Z" fill="white"/>
</svg>
