<svg width="24" height="24" viewBox="0 0 24 24" fill="none" xmlns="http://www.w3.org/2000/svg">
<g clip-path="url(#clip0_259_228)">
<path d="M21.5 4H18.8334V6C18.8334 6.19261 18.7954 6.38333 18.7217 6.56127C18.648 6.73921 18.54 6.9009 18.4038 7.03709C18.2676 7.17328 18.1059 7.28132 17.928 7.35502C17.75 7.42873 17.5593 7.46667 17.3667 7.46667C17.1741 7.46667 16.9834 7.42873 16.8054 7.35502C16.6275 7.28132 16.4658 7.17328 16.3296 7.03709C16.1934 6.9009 16.0854 6.73921 16.0117 6.56127C15.938 6.38333 15.9 6.19261 15.9 6V4H8.13336V6C8.13336 6.38898 7.97884 6.76204 7.70379 7.03709C7.42873 7.31214 7.05568 7.46667 6.6667 7.46667C6.27771 7.46667 5.90466 7.31214 5.62961 7.03709C5.35455 6.76204 5.20003 6.38898 5.20003 6V4H2.53336C2.37471 3.9982 2.21731 4.02822 2.07046 4.08831C1.92362 4.14839 1.79032 4.23732 1.67844 4.34982C1.56656 4.46232 1.47838 4.59611 1.4191 4.74329C1.35983 4.89046 1.33068 5.04803 1.33336 5.20667V20.1267C1.33071 20.2825 1.35879 20.4373 1.41599 20.5823C1.47319 20.7273 1.5584 20.8596 1.66674 20.9717C1.77508 21.0837 1.90443 21.1733 2.04741 21.2354C2.19038 21.2974 2.34419 21.3307 2.50003 21.3333H21.5C21.6559 21.3307 21.8097 21.2974 21.9527 21.2354C22.0956 21.1733 22.225 21.0837 22.3333 20.9717C22.4417 20.8596 22.5269 20.7273 22.5841 20.5823C22.6413 20.4373 22.6693 20.2825 22.6667 20.1267V5.20667C22.6693 5.05083 22.6413 4.89599 22.5841 4.751C22.5269 4.60601 22.4417 4.47371 22.3333 4.36166C22.225 4.24961 22.0956 4.15999 21.9527 4.09794C21.8097 4.03588 21.6559 4.0026 21.5 4ZM6.6667 17.3333H5.33336V16H6.6667V17.3333ZM6.6667 14H5.33336V12.6667H6.6667V14ZM6.6667 10.6667H5.33336V9.33333H6.6667V10.6667ZM10.6667 17.3333H9.33336V16H10.6667V17.3333ZM10.6667 14H9.33336V12.6667H10.6667V14ZM10.6667 10.6667H9.33336V9.33333H10.6667V10.6667ZM14.6667 17.3333H13.3334V16H14.6667V17.3333ZM14.6667 14H13.3334V12.6667H14.6667V14ZM14.6667 10.6667H13.3334V9.33333H14.6667V10.6667ZM18.6667 17.3333H17.3334V16H18.6667V17.3333ZM18.6667 14H17.3334V12.6667H18.6667V14ZM18.6667 10.6667H17.3334V9.33333H18.6667V10.6667Z" fill="white"/>
<path d="M6.66667 6.66666C6.84348 6.66666 7.01305 6.59642 7.13807 6.4714C7.2631 6.34637 7.33333 6.17681 7.33333 6V1.99999C7.33333 1.82318 7.2631 1.65361 7.13807 1.52859C7.01305 1.40357 6.84348 1.33333 6.66667 1.33333C6.48986 1.33333 6.32029 1.40357 6.19526 1.52859C6.07024 1.65361 6 1.82318 6 1.99999V6C6 6.17681 6.07024 6.34637 6.19526 6.4714C6.32029 6.59642 6.48986 6.66666 6.66667 6.66666Z" fill="white"/>
<path d="M17.3334 6.66666C17.5102 6.66666 17.6797 6.59642 17.8048 6.4714C17.9298 6.34637 18 6.17681 18 6V1.99999C18 1.82318 17.9298 1.65361 17.8048 1.52859C17.6797 1.40357 17.5102 1.33333 17.3334 1.33333C17.1565 1.33333 16.987 1.40357 16.8619 1.52859C16.7369 1.65361 16.6667 1.82318 16.6667 1.99999V6C16.6667 6.17681 16.7369 6.34637 16.8619 6.4714C16.987 6.59642 17.1565 6.66666 17.3334 6.66666Z" fill="white"/>
</g>
<defs>
<clipPath id="clip0_259_228">
<rect width="24" height="24" fill="white"/>
</clipPath>
</defs>
</svg>
