<svg width="25" height="24" viewBox="0 0 25 24" fill="none" xmlns="http://www.w3.org/2000/svg">
<path fill-rule="evenodd" clip-rule="evenodd" d="M4.672 3.172C3.5 4.343 3.5 6.229 3.5 10V14C3.5 17.771 3.5 19.657 4.672 20.828C5.843 22 7.729 22 11.5 22H13.5C17.271 22 19.157 22 20.328 20.828C21.5 19.657 21.5 17.771 21.5 14V10C21.5 6.229 21.5 4.343 20.328 3.172C19.157 2 17.271 2 13.5 2H11.5C7.729 2 5.843 2 4.672 3.172ZM8.5 9.25C8.30109 9.25 8.11032 9.32902 7.96967 9.46967C7.82902 9.61032 7.75 9.80109 7.75 10C7.75 10.1989 7.82902 10.3897 7.96967 10.5303C8.11032 10.671 8.30109 10.75 8.5 10.75H16.5C16.6989 10.75 16.8897 10.671 17.0303 10.5303C17.171 10.3897 17.25 10.1989 17.25 10C17.25 9.80109 17.171 9.61032 17.0303 9.46967C16.8897 9.32902 16.6989 9.25 16.5 9.25H8.5ZM8.5 13.25C8.30109 13.25 8.11032 13.329 7.96967 13.4697C7.82902 13.6103 7.75 13.8011 7.75 14C7.75 14.1989 7.82902 14.3897 7.96967 14.5303C8.11032 14.671 8.30109 14.75 8.5 14.75H13.5C13.6989 14.75 13.8897 14.671 14.0303 14.5303C14.171 14.3897 14.25 14.1989 14.25 14C14.25 13.8011 14.171 13.6103 14.0303 13.4697C13.8897 13.329 13.6989 13.25 13.5 13.25H8.5Z" fill="white"/>
</svg>
