<svg width="25" height="24" viewBox="0 0 25 24" fill="none" xmlns="http://www.w3.org/2000/svg">
<path d="M14.7 2.875C13.4734 2.875 12.297 3.36228 11.4296 4.22963C10.5623 5.09699 10.075 6.27337 10.075 7.5V10.075H7.6C7.476 10.075 7.375 10.175 7.375 10.3V13.7C7.375 13.824 7.475 13.925 7.6 13.925H10.075V20.9C10.075 21.024 10.175 21.125 10.3 21.125H13.7C13.824 21.125 13.925 21.025 13.925 20.9V13.925H16.422C16.525 13.925 16.615 13.855 16.64 13.755L17.49 10.355C17.4984 10.3218 17.4991 10.2872 17.492 10.2537C17.485 10.2202 17.4704 10.1888 17.4494 10.1618C17.4283 10.1348 17.4014 10.1129 17.3707 10.0979C17.34 10.0829 17.3062 10.075 17.272 10.075H13.925V7.5C13.925 7.39823 13.945 7.29745 13.984 7.20342C14.0229 7.10939 14.08 7.02396 14.152 6.95199C14.224 6.88003 14.3094 6.82294 14.4034 6.78399C14.4974 6.74505 14.5982 6.725 14.7 6.725H17.3C17.424 6.725 17.525 6.625 17.525 6.5V3.1C17.525 2.976 17.425 2.875 17.3 2.875H14.7Z" fill="white"/>
</svg>
