<svg width="21" height="20" viewBox="0 0 21 20" fill="none" xmlns="http://www.w3.org/2000/svg">
<path d="M11.5281 0.000890887C12.2578 -0.00190934 12.9875 0.00542478 13.7171 0.022891L13.9111 0.0298909C14.1351 0.0378909 14.3561 0.0478909 14.6231 0.0598909C15.6871 0.109891 16.4131 0.277891 17.0501 0.524891C17.7101 0.778891 18.2661 1.12289 18.8221 1.67889C19.3304 2.1785 19.7239 2.78284 19.9751 3.44989C20.2221 4.08689 20.3901 4.81389 20.4401 5.87789C20.4521 6.14389 20.4621 6.36589 20.4701 6.58989L20.4761 6.78389C20.4938 7.51308 20.5015 8.24249 20.4991 8.97189L20.5001 9.71789V11.0279C20.5025 11.7576 20.4949 12.4874 20.4771 13.2169L20.4711 13.4109C20.4631 13.6349 20.4531 13.8559 20.4411 14.1229C20.3911 15.1869 20.2211 15.9129 19.9751 16.5499C19.7247 17.2177 19.3312 17.8225 18.8221 18.3219C18.322 18.8302 17.7174 19.2236 17.0501 19.4749C16.4131 19.7219 15.6871 19.8899 14.6231 19.9399C14.3561 19.9519 14.1351 19.9619 13.9111 19.9699L13.7171 19.9759C12.9875 19.9937 12.2578 20.0013 11.5281 19.9989L10.7821 19.9999H9.47306C8.74332 20.0024 8.01358 19.9947 7.28406 19.9769L7.09006 19.9709C6.85267 19.9623 6.61533 19.9523 6.37806 19.9409C5.31406 19.8909 4.58806 19.7209 3.95006 19.4749C3.28274 19.2242 2.6783 18.8307 2.17906 18.3219C1.6701 17.8222 1.27628 17.2175 1.02506 16.5499C0.778058 15.9129 0.610058 15.1869 0.560058 14.1229C0.548921 13.8856 0.538921 13.6483 0.530058 13.4109L0.525058 13.2169C0.506622 12.4874 0.498288 11.7576 0.500058 11.0279V8.97189C0.497267 8.24249 0.504601 7.51309 0.522058 6.78389L0.529058 6.58989C0.537058 6.36589 0.547058 6.14389 0.559058 5.87789C0.609058 4.81289 0.777058 4.08789 1.02406 3.44989C1.27543 2.78251 1.67002 2.17834 2.18006 1.67989C2.67895 1.17064 3.28302 0.776464 3.95006 0.524891C4.58806 0.277891 5.31306 0.109891 6.37806 0.0598909L7.09006 0.0298909L7.28406 0.0248911C8.01324 0.00646387 8.74264 -0.00187036 9.47206 -0.00010904L11.5281 0.000890887ZM10.5001 5.00089C9.83756 4.99152 9.17982 5.11391 8.56503 5.36096C7.95025 5.608 7.3907 5.97477 6.9189 6.43995C6.4471 6.90512 6.07246 7.45943 5.81675 8.07065C5.56103 8.68188 5.42935 9.33783 5.42935 10.0004C5.42935 10.663 5.56103 11.3189 5.81675 11.9301C6.07246 12.5414 6.4471 13.0957 6.9189 13.5608C7.3907 14.026 7.95025 14.3928 8.56503 14.6398C9.17982 14.8869 9.83756 15.0093 10.5001 14.9999C11.8261 14.9999 13.0979 14.4731 14.0356 13.5354C14.9733 12.5977 15.5001 11.326 15.5001 9.99989C15.5001 8.67381 14.9733 7.40204 14.0356 6.46436C13.0979 5.52668 11.8261 5.00089 10.5001 5.00089ZM10.5001 7.00089C10.8986 6.99355 11.2945 7.06569 11.6649 7.2131C12.0352 7.36051 12.3724 7.58023 12.6568 7.85944C12.9413 8.13864 13.1672 8.47172 13.3215 8.83923C13.4758 9.20674 13.5553 9.60131 13.5553 9.99988C13.5554 10.3985 13.476 10.793 13.3219 11.1606C13.1677 11.5282 12.9419 11.8613 12.6576 12.1406C12.3732 12.4199 12.036 12.6398 11.6658 12.7873C11.2955 12.9348 10.8996 13.0071 10.5011 12.9999C9.70541 12.9999 8.94235 12.6838 8.37974 12.1212C7.81713 11.5586 7.50106 10.7955 7.50106 9.99989C7.50106 9.20424 7.81713 8.44118 8.37974 7.87857C8.94235 7.31596 9.70541 6.99989 10.5011 6.99989L10.5001 7.00089ZM15.7501 3.50089C15.4275 3.5138 15.1224 3.65104 14.8987 3.88386C14.675 4.11668 14.55 4.42703 14.55 4.74989C14.55 5.07276 14.675 5.3831 14.8987 5.61592C15.1224 5.84874 15.4275 5.98598 15.7501 5.99889C16.0816 5.99889 16.3995 5.86719 16.6339 5.63277C16.8684 5.39835 17.0001 5.08041 17.0001 4.74889C17.0001 4.41737 16.8684 4.09943 16.6339 3.86501C16.3995 3.63059 16.0816 3.49889 15.7501 3.49889V3.50089Z" fill="white"/>
</svg>
