<svg width="33" height="32" viewBox="0 0 33 32" fill="none" xmlns="http://www.w3.org/2000/svg">
<path d="M22.62 24.438L19.26 16.591C18.93 15.823 18.66 14.511 18.66 13.675C18.66 12.839 19.173 12.155 19.8 12.155C20.427 12.155 20.94 11.641 20.94 11.015C20.94 10.389 20.256 9.875 19.42 9.875H12.58C11.744 9.875 11.06 10.387 11.06 11.015C11.06 11.643 11.573 12.155 12.2 12.155C12.827 12.155 13.34 12.839 13.34 13.675C13.34 14.511 13.07 15.823 12.74 16.592L9.38003 24.44C9.05003 25.208 8.78003 26.18 8.78003 26.597C8.78003 27.014 9.12203 27.7 9.54003 28.117C9.95803 28.534 10.984 28.877 11.82 28.877H20.18C21.015 28.877 22.04 28.537 22.46 28.117C22.88 27.697 23.22 27.015 23.22 26.597C23.22 26.179 22.95 25.207 22.62 24.44V24.438ZM17.083 7.625C17.083 7.91223 17.1971 8.18769 17.4002 8.39079C17.6033 8.59389 17.8788 8.708 18.166 8.708C18.4533 8.708 18.7287 8.59389 18.9318 8.39079C19.1349 8.18769 19.249 7.91223 19.249 7.625C19.2489 7.33777 19.1347 7.06235 18.9315 6.85935C18.7283 6.65634 18.4528 6.54236 18.1655 6.5425C17.8783 6.54263 17.6029 6.65686 17.3999 6.86005C17.1969 7.06325 17.0829 7.33777 17.083 7.625ZM14.168 7.792C14.3006 7.792 14.4278 7.73932 14.5216 7.64555C14.6154 7.55178 14.668 7.4246 14.668 7.292C14.668 7.15939 14.6154 7.03221 14.5216 6.93844C14.4278 6.84467 14.3006 6.792 14.168 6.792C14.0354 6.792 13.9082 6.84467 13.8145 6.93844C13.7207 7.03221 13.668 7.15939 13.668 7.292C13.668 7.4246 13.7207 7.55178 13.8145 7.64555C13.9082 7.73932 14.0354 7.792 14.168 7.792ZM16.085 5.292C16.2995 5.30265 16.5139 5.26959 16.7151 5.19482C16.9164 5.12006 17.1004 5.00516 17.2559 4.8571C17.4114 4.70904 17.5352 4.53091 17.6197 4.33353C17.7042 4.13616 17.7477 3.92366 17.7476 3.70894C17.7475 3.49423 17.7037 3.28179 17.6189 3.08452C17.5341 2.88725 17.4101 2.70928 17.2544 2.56141C17.0988 2.41355 16.9146 2.29888 16.7133 2.22437C16.5119 2.14986 16.2975 2.11708 16.083 2.128C15.6806 2.15306 15.3028 2.33066 15.0268 2.6246C14.7508 2.91855 14.5972 3.3067 14.5975 3.70994C14.5977 4.11317 14.7518 4.50113 15.0282 4.79473C15.3046 5.08832 15.6825 5.26545 16.085 5.29V5.292Z" fill="white"/>
</svg>
