<svg width="25" height="24" viewBox="0 0 25 24" fill="none" xmlns="http://www.w3.org/2000/svg">
<g clip-path="url(#clip0_206_7)">
<path d="M7.44 5C7.43974 5.53043 7.22877 6.03904 6.85351 6.41392C6.47825 6.78881 5.96944 6.99927 5.439 6.999C4.90857 6.99874 4.39997 6.78777 4.02508 6.41251C3.6502 6.03725 3.43974 5.52843 3.44 4.998C3.44027 4.46757 3.65124 3.95897 4.0265 3.58408C4.40176 3.20919 4.91057 2.99874 5.441 2.999C5.97144 2.99927 6.48004 3.21023 6.85492 3.58549C7.22981 3.96075 7.44027 4.46957 7.44 5ZM7.5 8.48H3.5V21H7.5V8.48ZM13.82 8.48H9.84V21H13.78V14.43C13.78 10.77 18.55 10.43 18.55 14.43V21H22.5V13.07C22.5 6.9 15.44 7.13 13.78 10.16L13.82 8.48Z" fill="white"/>
<path d="M7.44 4.99999C7.43974 5.53043 7.22877 6.03903 6.85351 6.41391C6.47825 6.7888 5.96944 6.99926 5.439 6.99899C4.90857 6.99873 4.39997 6.78776 4.02508 6.4125C3.6502 6.03724 3.43974 5.52843 3.44 4.99799C3.44027 4.46756 3.65124 3.95896 4.0265 3.58407C4.40176 3.20919 4.91057 2.99873 5.441 2.99899C5.97144 2.99926 6.48004 3.21023 6.85492 3.58549C7.22981 3.96075 7.44027 4.46956 7.44 4.99999ZM7.5 8.47999H3.5V21H7.5V8.47999ZM13.82 8.47999H9.84V21H13.78V14.43C13.78 10.77 18.55 10.43 18.55 14.43V21H22.5V13.07C22.5 6.89999 15.44 7.12999 13.78 10.16L13.82 8.47999Z" fill="white"/>
</g>
<defs>
<clipPath id="clip0_206_7">
<rect width="24" height="24" fill="white" transform="translate(0.5)"/>
</clipPath>
</defs>
</svg>
