<svg width="25" height="24" viewBox="0 0 25 24" fill="none" xmlns="http://www.w3.org/2000/svg">
<path d="M6.5 13.5H11V15H6.5V13.5ZM6.5 16.5H14V18H6.5V16.5Z" fill="white"/>
<path d="M20 3H5C4.60236 3.0006 4.22117 3.15882 3.94 3.44C3.65882 3.72117 3.5006 4.10236 3.5 4.5V19.5C3.5006 19.8976 3.65882 20.2788 3.94 20.56C4.22117 20.8412 4.60236 20.9994 5 21H20C20.3976 20.9994 20.7788 20.8412 21.06 20.56C21.3412 20.2788 21.4994 19.8976 21.5 19.5V4.5C21.4994 4.10236 21.3412 3.72117 21.06 3.44C20.7788 3.15882 20.3976 3.0006 20 3ZM14 4.5V7.5H11V4.5H14ZM5 19.5V4.5H9.5V9H15.5V4.5H20L20.0007 19.5H5Z" fill="white"/>
</svg>
