<svg width="25" height="24" viewBox="0 0 25 24" fill="none" xmlns="http://www.w3.org/2000/svg">
<path d="M3.5 21H5.5V15H3.5V18V21ZM12.96 22L10.03 21.36L7.1 20.67C6.93041 20.6369 6.77805 20.5448 6.67 20.41C6.55824 20.2791 6.49783 20.1121 6.5 19.94V15.94C6.50283 15.7688 6.56265 15.6034 6.67 15.47C6.78169 15.3394 6.93246 15.2482 7.1 15.21L11.88 14.62L16.67 14.02L16.82 14.58L16.97 15.13C16.9727 15.3144 16.9204 15.4954 16.82 15.65C16.7281 15.8117 16.5884 15.941 16.42 16.02L14.42 16.52L12.42 17.02L14.04 17.68L15.67 18.33L17.94 17.69L20.15 17C20.3464 16.9503 20.5544 16.979 20.73 17.08C20.8184 17.1278 20.8961 17.1933 20.958 17.2724C21.02 17.3516 21.0649 17.4427 21.09 17.54L21.28 18.31L21.48 19.07C21.5254 19.2601 21.4968 19.4602 21.4 19.63C21.2971 19.8013 21.1325 19.9265 20.94 19.98L17.31 20.98L13.68 21.98C13.5605 21.9953 13.4395 21.9953 13.32 21.98C13.2019 22.0064 13.0803 22.0132 12.96 22ZM9.5 4L7.5 6L5.5 8L7.5 10L9.5 12L10.2 11.3L10.9 10.6L9.6 9.3L8.3 8L9.6 6.7L10.9 5.4L10.2 4.7L9.5 4ZM15.5 4L14.8 4.7L14.1 5.4L15.4 6.7L16.7 8L15.4 9.3L14.1 10.6L14.8 11.3L15.5 12L17.5 10L19.5 8L17.5 6L15.5 4Z" fill="white"/>
</svg>
