<svg width="24" height="25" viewBox="0 0 24 25" fill="none" xmlns="http://www.w3.org/2000/svg">
<path d="M12 2.5C6.48 2.5 2 6.98 2 12.5C2 18.02 6.48 22.5 12 22.5C17.52 22.5 22 18.02 22 12.5C22 6.98 17.52 2.5 12 2.5ZM16.64 9.3C16.49 10.88 15.84 14.72 15.51 16.49C15.37 17.24 15.09 17.49 14.83 17.52C14.25 17.57 13.81 17.14 13.25 16.77C12.37 16.19 11.87 15.83 11.02 15.27C10.03 14.62 10.67 14.26 11.24 13.68C11.39 13.53 13.95 11.2 14 10.99C14.0069 10.9582 14.006 10.9252 13.9973 10.8938C13.9886 10.8624 13.9724 10.8337 13.95 10.81C13.89 10.76 13.81 10.78 13.74 10.79C13.65 10.81 12.25 11.74 9.52 13.58C9.12 13.85 8.76 13.99 8.44 13.98C8.08 13.97 7.4 13.78 6.89 13.61C6.26 13.41 5.77 13.3 5.81 12.95C5.83 12.77 6.08 12.59 6.55 12.4C9.47 11.13 11.41 10.29 12.38 9.89C15.16 8.73 15.73 8.53 16.11 8.53C16.19 8.53 16.38 8.55 16.5 8.65C16.6 8.73 16.63 8.84 16.64 8.92C16.63 8.98 16.65 9.16 16.64 9.3Z" fill="white"/>
</svg>
