<svg width="28" height="30" viewBox="0 0 28 30" fill="none" xmlns="http://www.w3.org/2000/svg">
<path d="M15.3751 6.54554V26.0175C15.3758 26.1463 15.352 26.2739 15.3049 26.3931C15.2578 26.5122 15.1884 26.6206 15.1008 26.7119C15.0131 26.8032 14.9089 26.8757 14.7942 26.9251C14.6794 26.9745 14.5563 27 14.432 27C14.3077 27 14.1846 26.9745 14.0698 26.9251C13.955 26.8757 13.8508 26.8032 13.7631 26.7119C13.6755 26.6206 13.6061 26.5122 13.5591 26.3931C13.512 26.2739 13.4881 26.1463 13.4888 26.0175V6.54554L6.61145 14.114C6.52663 14.2099 6.42346 14.2865 6.3085 14.3389C6.19355 14.3913 6.06932 14.4184 5.94372 14.4184C5.81812 14.4184 5.69389 14.3913 5.57894 14.3389C5.46398 14.2865 5.36081 14.2099 5.27598 14.114C5.09849 13.9139 5 13.6521 5 13.3804C5 13.1087 5.09849 12.8469 5.27598 12.6468L13.7642 3.30445C13.849 3.20851 13.9522 3.13189 14.0672 3.07948C14.1821 3.02707 14.3064 3 14.432 3C14.5576 3 14.6818 3.02707 14.7968 3.07948C14.9117 3.13189 15.0149 3.20851 15.0997 3.30445L23.588 12.6468C23.7649 12.8468 23.8631 13.1081 23.8631 13.3794C23.8631 13.6506 23.7649 13.912 23.588 14.112C23.5032 14.2079 23.4 14.2846 23.285 14.337C23.1701 14.3894 23.0458 14.4165 22.9202 14.4165C22.7946 14.4165 22.6704 14.3894 22.5554 14.337C22.4405 14.2846 22.3373 14.2079 22.2525 14.112L15.3751 6.54752V6.54554Z" fill="white"/>
</svg>
