<svg width="107" height="107" viewBox="0 0 107 107" fill="none" xmlns="http://www.w3.org/2000/svg">
<path d="M72.9383 62.4167C73.295 59.4742 73.5625 56.5317 73.5625 53.5C73.5625 50.4684 73.295 47.5259 72.9383 44.5834H88.0075C88.7208 47.4367 89.1666 50.4238 89.1666 53.5C89.1666 56.5763 88.7208 59.5634 88.0075 62.4167M65.047 87.205C67.722 82.2563 69.7729 76.9063 71.1995 71.3334H84.3516C80.0323 78.7711 73.1796 84.4052 65.047 87.205ZM63.9325 62.4167H43.0675C42.6216 59.4742 42.3541 56.5317 42.3541 53.5C42.3541 50.4684 42.6216 47.4813 43.0675 44.5834H63.9325C64.3337 47.4813 64.6458 50.4684 64.6458 53.5C64.6458 56.5317 64.3337 59.4742 63.9325 62.4167ZM53.5 88.9884C49.7995 83.6384 46.8125 77.7088 44.9845 71.3334H62.0154C60.1875 77.7088 57.2004 83.6384 53.5 88.9884ZM35.6666 35.6667H22.6483C26.9232 28.2089 33.7709 22.5658 41.9083 19.795C39.2333 24.7438 37.227 30.0938 35.6666 35.6667ZM22.6483 71.3334H35.6666C37.227 76.9063 39.2333 82.2563 41.9083 87.205C33.788 84.4037 26.9499 78.7686 22.6483 71.3334ZM18.9925 62.4167C18.2791 59.5634 17.8333 56.5763 17.8333 53.5C17.8333 50.4238 18.2791 47.4367 18.9925 44.5834H34.0616C33.705 47.5259 33.4375 50.4684 33.4375 53.5C33.4375 56.5317 33.705 59.4742 34.0616 62.4167M53.5 17.9671C57.2004 23.3171 60.1875 29.2913 62.0154 35.6667H44.9845C46.8125 29.2913 49.7995 23.3171 53.5 17.9671ZM84.3516 35.6667H71.1995C69.8042 30.1449 67.738 24.8146 65.047 19.795C73.2504 22.6038 80.0716 28.2659 84.3516 35.6667ZM53.5 8.91669C28.8454 8.91669 8.91663 28.9792 8.91663 53.5C8.91663 65.3243 13.6138 76.6642 21.9748 85.0252C26.1147 89.1651 31.0296 92.4491 36.4387 94.6897C41.8478 96.9302 47.6452 98.0834 53.5 98.0834C65.3242 98.0834 76.6641 93.3862 85.0251 85.0252C93.3861 76.6642 98.0833 65.3243 98.0833 53.5C98.0833 47.6453 96.9301 41.8478 94.6896 36.4387C92.4491 31.0296 89.1651 26.1148 85.0251 21.9748C80.8852 17.8349 75.9704 14.5509 70.5613 12.3104C65.1522 10.0699 59.3547 8.91669 53.5 8.91669Z" fill="white"/>
</svg>
