<svg width="24" height="25" viewBox="0 0 24 25" fill="none" xmlns="http://www.w3.org/2000/svg">
<g clip-path="url(#clip0_307_1156)">
<path fill-rule="evenodd" clip-rule="evenodd" d="M12 2.5C6.477 2.5 2 6.977 2 12.5C2 14.39 2.525 16.16 3.438 17.668L2.546 20.7C2.49478 20.8741 2.49141 21.0587 2.53624 21.2346C2.58107 21.4104 2.67245 21.5709 2.80076 21.6992C2.92907 21.8276 3.08958 21.9189 3.26542 21.9638C3.44125 22.0086 3.62592 22.0052 3.8 21.954L6.832 21.062C8.39068 22.0051 10.1782 22.5025 12 22.5C17.523 22.5 22 18.023 22 12.5C22 6.977 17.523 2.5 12 2.5ZM9.738 14.763C11.761 16.785 13.692 17.052 14.374 17.077C15.411 17.115 16.421 16.323 16.814 15.404C16.8636 15.2897 16.8816 15.1641 16.8661 15.0405C16.8507 14.9168 16.8023 14.7996 16.726 14.701C16.178 14.001 15.437 13.498 14.713 12.998C14.5618 12.8935 14.3761 12.8516 14.1947 12.881C14.0133 12.9105 13.8503 13.009 13.74 13.156L13.14 14.071C13.1085 14.1202 13.0593 14.1555 13.0026 14.1696C12.9459 14.1837 12.8859 14.1756 12.835 14.147C12.428 13.914 11.835 13.518 11.409 13.092C10.983 12.666 10.611 12.1 10.402 11.719C10.3761 11.6706 10.3686 11.6144 10.3809 11.5609C10.3932 11.5074 10.4245 11.4602 10.469 11.428L11.393 10.742C11.5249 10.6273 11.61 10.4682 11.6321 10.2949C11.6542 10.1215 11.6118 9.94611 11.513 9.802C11.065 9.146 10.543 8.312 9.786 7.759C9.68831 7.6882 9.57386 7.64406 9.45393 7.63091C9.334 7.61776 9.21271 7.63606 9.102 7.684C8.182 8.078 7.386 9.088 7.424 10.127C7.449 10.809 7.716 12.74 9.738 14.763Z" fill="white"/>
</g>
<defs>
<clipPath id="clip0_307_1156">
<rect width="24" height="24" fill="white" transform="translate(0 0.5)"/>
</clipPath>
</defs>
</svg>
